<svg width="350" height="504" viewBox="0 0 350 504" fill="none" xmlns="http://www.w3.org/2000/svg">
<path d="M191.018 345.179L175.433 366.612C175.433 366.612 181.018 331.725 166.089 282.541L150.504 303.973C143.559 281.163 146.787 248.722 106.126 211.12" stroke="#425749" stroke-width="3" stroke-linecap="round" stroke-linejoin="round"/>
<path d="M112.619 109.465L129.177 142.693L137.351 117.485C137.351 117.485 142.855 152.385 172.294 194.52L180.468 169.312C194.141 188.846 201.618 213.227 242.243 237.161" stroke="#425749" stroke-width="3" stroke-linecap="round" stroke-linejoin="round"/>
<path d="M203.748 482.405C185.184 484.98 165.443 475.571 165.443 475.571C165.443 475.571 189.368 471.026 183.529 467.703C109.195 425.397 109.781 404.186 109.781 404.186L130.698 405.177C130.698 405.177 76.6357 362.409 80.1357 318.909L98.6726 322.542C98.6726 322.542 76.6357 253.909 106.136 211.409" stroke="#425749" stroke-width="3" stroke-linejoin="round"/>
<path d="M241.445 237.584C241.445 237.584 247.701 201.106 223.99 135.592L239.557 136.997C233.346 92.933 167.928 66.9537 167.928 66.9537L188.122 61.4119C188.122 61.4119 182.105 41.0639 98.3195 23.8823C91.7377 22.5326 113.076 10.7958 113.076 10.7958C113.076 10.7958 91.3901 7.96903 74.5385 16.171" stroke="#425749" stroke-width="3" stroke-linejoin="round"/>
<path d="M119.366 288.132C119.366 288.132 137.308 399.951 210.172 473.572M243.636 501.517C231.366 493.197 220.244 483.749 210.172 473.572M210.172 473.572C226.244 448.069 214.036 413.845 214.036 413.845L197.532 427.191C197.532 427.191 206.5 334.209 235.5 313C264.5 291.791 290.449 306.5 294 324.5C297.864 344.09 273 367.5 254 349C245.639 340.859 252.705 327.978 260.5 324.5C270.419 320.075 283 335.5 267.5 341" stroke="#425749" stroke-width="3" stroke-linecap="round" stroke-linejoin="round"/>
<path d="M214.98 174.722C214.98 174.722 163.263 73.9704 71.1687 26.56M30.6909 10.3632C44.9351 14.4714 58.4377 20.006 71.1687 26.56M71.1687 26.56C63.7934 55.7889 86.0073 84.5429 86.0073 84.5429L97.5624 66.739C97.5624 66.739 98.3597 79.0968 113.332 110.698" stroke="#425749" stroke-width="3" stroke-linejoin="round"/>
<path d="M57 159.5C60.4737 155.553 63 147 63 147C63 147 65.9001 155.565 69.5 159.5C72.9821 163.306 79.5 166 79.5 166C79.5 166 72.8195 168.681 69.5 172C66.1805 175.319 63 183 63 183C63 183 60.2218 175.319 57 172C53.7782 168.681 46 166 46 166C46 166 53.5916 163.372 57 159.5Z" stroke="#425749" stroke-width="3" stroke-linejoin="round"/>
</svg>
