<svg width="480" height="982" viewBox="0 0 480 982" fill="none" xmlns="http://www.w3.org/2000/svg">
<path d="M271.4 837.351L307.376 828.186L284.464 814.871C284.464 814.871 319.738 816.864 367.141 796.991L344.229 783.676C366.211 774.438 391.621 772.28 423.597 737.628" stroke="#425749" stroke-width="3" stroke-linecap="round" stroke-linejoin="round"/>
<path d="M289.674 603.954L298.477 573.731L312.34 591.419C312.34 591.419 309.81 562.68 329.335 522.223L343.198 539.91C352.276 521.147 354.106 500.152 388.876 471.13" stroke="#425749" stroke-width="3" stroke-linecap="round" stroke-linejoin="round"/>
<path d="M113.776 618.157L95.7465 581.402L123.326 591.09C123.326 591.09 96.4196 562.918 79.2164 508.903L106.796 518.59C98.8369 493.526 82.4751 470.658 88.7279 419" stroke="#425749" stroke-width="3" stroke-linecap="round" stroke-linejoin="round"/>
<path d="M423.842 738.498C423.842 738.498 389.509 724.677 320.465 734.013L325.126 719.094C280.745 715.857 241.532 774.309 241.532 774.309L240.381 753.4C240.381 753.4 219.221 754.983 184.728 833.248C182.018 839.396 175.054 816.06 175.054 816.06C175.054 816.06 167.71 836.659 172.167 854.863" stroke="#425749" stroke-width="3" stroke-linejoin="round"/>
<path d="M387.989 471C387.989 471 402.53 498.004 394.025 555.334L409.124 550.299C413.049 586.399 354.187 623.289 354.187 623.289L375.46 622.528C375.46 622.528 374.153 639.994 295.082 674.633C288.871 677.354 312.693 681.158 312.693 681.158C312.693 681.158 291.858 688.854 273.288 686.685" stroke="#425749" stroke-width="3" stroke-linejoin="round"/>
<path d="M87.822 419.417C87.822 419.417 123.996 438.326 165.535 502.951L174.739 488.352C209.205 523.274 188.125 598.056 188.125 598.056L206.522 584.041C206.522 584.041 220.327 602.931 179.219 687.947C175.99 694.625 200.585 683.751 200.585 683.751C200.585 683.751 188.525 704.671 170.037 713.973" stroke="#425749" stroke-width="3" stroke-linejoin="round"/>
<path d="M356.808 751.085C356.808 751.085 247.405 780.352 181.609 860.352M157.227 896.494C164.252 883.44 172.514 871.411 181.609 860.352M181.609 860.352C208.62 873.735 241.418 858.097 241.418 858.097L226.457 843.042C226.457 843.042 238.704 844.873 272.756 836.914" stroke="#425749" stroke-width="3" stroke-linejoin="round"/>
<path d="M376.15 526.949C376.15 526.949 347.961 618.97 267.574 679.396M233.629 717C233.629 700 256.462 687.75 267.574 679.396M267.574 679.396C253.583 658.356 269.012 630.21 269.012 630.21L284.531 641.241C284.531 641.241 282.494 631.356 290.099 602.808" stroke="#425749" stroke-width="3" stroke-linejoin="round"/>
<path d="M125.19 484.686C125.19 484.686 178.846 597.457 158.67 709.981M71.1294 864.5C64.1292 784 146.384 778.5 158.67 709.981M158.67 709.981C128.101 696.904 117.785 658.178 117.785 658.178L141.14 659.947C141.14 659.947 130.841 650.982 113.174 616.706" stroke="#425749" stroke-width="3" stroke-linejoin="round"/>
<path d="M68.6269 108.613C76.4039 99.7327 82.0597 80.4875 82.0597 80.4875C82.0597 80.4875 88.5526 99.7589 96.6119 108.613C104.408 117.177 119 123.238 119 123.238C119 123.238 104.044 129.269 96.6119 136.738C89.1803 144.206 82.0597 161.488 82.0597 161.488C82.0597 161.488 75.8399 144.206 68.6269 136.738C61.4138 129.269 44 123.238 44 123.238C44 123.238 60.9961 117.325 68.6269 108.613Z" stroke="#425749" stroke-width="3" stroke-linejoin="round"/>
<path d="M76.8358 274.153C80.2577 270.316 82.7463 262 82.7463 262C82.7463 262 85.6031 270.327 89.1493 274.153C92.5794 277.853 99 280.472 99 280.472C99 280.472 92.4192 283.078 89.1493 286.306C85.8793 289.533 82.7463 297 82.7463 297C82.7463 297 80.0096 289.533 76.8358 286.306C73.6621 283.078 66 280.472 66 280.472C66 280.472 73.4783 277.918 76.8358 274.153Z" stroke="#425749" stroke-width="3" stroke-linejoin="round"/>
<path d="M126.617 192.403C131.905 186.593 135.751 174 135.751 174C135.751 174 140.166 186.61 145.647 192.403C150.948 198.006 160.871 201.972 160.871 201.972C160.871 201.972 150.7 205.919 145.647 210.806C140.593 215.693 135.751 227 135.751 227C135.751 227 131.522 215.693 126.617 210.806C121.712 205.919 109.871 201.972 109.871 201.972C109.871 201.972 121.428 198.104 126.617 192.403Z" stroke="#425749" stroke-width="3" stroke-linejoin="round"/>
<path d="M256.353 511.333C258.635 508.702 260.294 503 260.294 503C260.294 503 262.198 508.71 264.562 511.333C266.849 513.871 271.129 515.667 271.129 515.667C271.129 515.667 266.742 517.454 264.562 519.667C262.382 521.88 260.294 527 260.294 527C260.294 527 258.469 521.88 256.353 519.667C254.237 517.454 249.129 515.667 249.129 515.667C249.129 515.667 254.115 513.915 256.353 511.333Z" stroke="#425749" stroke-width="3" stroke-linejoin="round"/>
<path d="M45.002 338.467L58.4113 345.533" stroke="#425749" stroke-width="3" stroke-linecap="round"/>
<path d="M57.4961 337.308L45.9171 346.692" stroke="#425749" stroke-width="3" stroke-linecap="round"/>
<path d="M50.6372 335L52.7765 349" stroke="#425749" stroke-width="3" stroke-linecap="round"/>
<path d="M68.002 202.955L81.4113 210.02" stroke="#425749" stroke-width="3" stroke-linecap="round"/>
<path d="M80.4961 201.796L68.9171 211.179" stroke="#425749" stroke-width="3" stroke-linecap="round"/>
<path d="M73.6372 199.488L75.7765 213.488" stroke="#425749" stroke-width="3" stroke-linecap="round"/>
<path d="M407.274 667.963L422.599 676.037" stroke="#425749" stroke-width="3" stroke-linecap="round"/>
<path d="M421.554 666.638L408.321 677.362" stroke="#425749" stroke-width="3" stroke-linecap="round"/>
<path d="M413.714 664L416.159 680" stroke="#425749" stroke-width="3" stroke-linecap="round"/>
<path d="M42.1777 39.0763L57.9419 47.382" stroke="#425749" stroke-width="3" stroke-linecap="round"/>
<path d="M56.8657 37.7137L43.2534 48.7447" stroke="#425749" stroke-width="3" stroke-linecap="round"/>
<path d="M48.8022 35L51.3172 51.4584" stroke="#425749" stroke-width="3" stroke-linecap="round"/>
</svg>
