<svg width="458" height="982" viewBox="0 0 458 982" fill="none" xmlns="http://www.w3.org/2000/svg">
<path d="M208.729 109.137L172.753 118.302L195.666 131.616C195.666 131.616 160.391 129.623 112.988 149.497L135.9 162.811C113.918 172.05 88.5083 174.207 56.5323 208.859" stroke="#425749" stroke-width="3" stroke-linecap="round" stroke-linejoin="round"/>
<path d="M190.456 342.533L181.653 372.756L167.79 355.068C167.79 355.068 170.32 383.807 150.794 424.265L136.931 406.577C127.854 425.34 126.023 446.335 91.2531 475.357" stroke="#425749" stroke-width="3" stroke-linecap="round" stroke-linejoin="round"/>
<path d="M366.353 328.331L384.383 365.085L356.804 355.398C356.804 355.398 383.71 383.57 400.913 437.585L373.334 427.898C381.292 452.962 397.654 475.83 391.402 527.488" stroke="#425749" stroke-width="3" stroke-linecap="round" stroke-linejoin="round"/>
<path d="M56.287 207.99C56.287 207.99 90.6207 221.811 159.664 212.475L155.003 227.393C199.385 230.631 238.597 172.178 238.597 172.178L239.748 193.087C239.748 193.087 260.908 191.505 295.402 113.239C298.111 107.091 305.076 130.427 305.076 130.427C305.076 130.427 312.42 109.828 307.963 91.6242" stroke="#425749" stroke-width="3" stroke-linejoin="round"/>
<path d="M92.1405 475.487C92.1405 475.487 77.5998 448.483 86.1047 391.153L71.0052 396.188C67.08 360.089 125.942 323.198 125.942 323.198L104.67 323.959C104.67 323.959 105.977 306.494 185.047 271.855C191.258 269.134 167.436 265.329 167.436 265.329C167.436 265.329 188.272 257.634 206.841 259.802" stroke="#425749" stroke-width="3" stroke-linejoin="round"/>
<path d="M392.307 527.07C392.307 527.07 356.133 508.162 314.595 443.536L305.39 458.136C270.924 423.213 292.004 348.432 292.004 348.432L273.608 362.446C273.608 362.446 259.803 343.556 300.91 258.541C304.139 251.862 279.545 262.737 279.545 262.737C279.545 262.737 291.605 241.817 310.092 232.515" stroke="#425749" stroke-width="3" stroke-linejoin="round"/>
<path d="M123.322 195.402C123.322 195.402 232.725 166.136 298.52 86.1356M322.902 49.9929C315.878 63.0478 307.616 75.0765 298.52 86.1356M298.52 86.1356C271.509 72.752 238.711 88.3903 238.711 88.3903L253.672 103.446C253.672 103.446 241.425 101.614 207.374 109.573" stroke="#425749" stroke-width="3" stroke-linejoin="round"/>
<path d="M103.979 419.538C103.979 419.538 132.168 327.517 212.555 267.091M246.5 229.488C246.5 246.488 223.668 258.738 212.555 267.091M212.555 267.091C226.547 288.132 211.117 316.278 211.117 316.278L195.599 305.247C195.599 305.247 197.635 315.132 190.031 343.679" stroke="#425749" stroke-width="3" stroke-linejoin="round"/>
<path d="M354.939 461.801C354.939 461.801 301.283 349.031 321.46 236.506M409 81.9874C416 162.487 333.745 167.987 321.46 236.506M321.46 236.506C352.029 249.584 362.344 288.309 362.344 288.309L338.99 286.541C338.99 286.541 349.289 295.506 366.956 329.781" stroke="#425749" stroke-width="3" stroke-linejoin="round"/>
<path d="M385.373 912.875C377.596 921.755 371.94 941 371.94 941C371.94 941 365.447 921.729 357.388 912.875C349.592 904.311 335 898.25 335 898.25C335 898.25 349.956 892.219 357.388 884.75C364.82 877.281 371.94 860 371.94 860C371.94 860 378.16 877.281 385.373 884.75C392.586 892.219 410 898.25 410 898.25C410 898.25 393.004 904.162 385.373 912.875Z" stroke="#425749" stroke-width="3" stroke-linejoin="round"/>
<path d="M389.164 730.847C385.742 734.684 383.254 743 383.254 743C383.254 743 380.397 734.673 376.851 730.847C373.421 727.147 367 724.528 367 724.528C367 724.528 373.581 721.922 376.851 718.694C380.121 715.467 383.254 708 383.254 708C383.254 708 385.99 715.467 389.164 718.694C392.338 721.922 400 724.528 400 724.528C400 724.528 392.522 727.082 389.164 730.847Z" stroke="#425749" stroke-width="3" stroke-linejoin="round"/>
<path d="M354.254 806.597C348.965 812.407 345.119 825 345.119 825C345.119 825 340.704 812.39 335.224 806.597C329.923 800.994 320 797.028 320 797.028C320 797.028 330.17 793.081 335.224 788.194C340.277 783.307 345.119 772 345.119 772C345.119 772 349.349 783.307 354.254 788.194C359.159 793.081 371 797.028 371 797.028C371 797.028 359.443 800.896 354.254 806.597Z" stroke="#425749" stroke-width="3" stroke-linejoin="round"/>
<path d="M223.776 435.154C221.495 437.785 219.836 443.488 219.836 443.488C219.836 443.488 217.931 437.778 215.567 435.154C213.28 432.617 209 430.821 209 430.821C209 430.821 213.387 429.034 215.567 426.821C217.747 424.608 219.836 419.488 219.836 419.488C219.836 419.488 221.66 424.608 223.776 426.821C225.892 429.034 231 430.821 231 430.821C231 430.821 226.014 432.573 223.776 435.154Z" stroke="#425749" stroke-width="3" stroke-linejoin="round"/>
<path d="M414.411 821.533L401.002 814.467" stroke="#425749" stroke-width="3" stroke-linecap="round"/>
<path d="M401.917 822.692L413.496 813.308" stroke="#425749" stroke-width="3" stroke-linecap="round"/>
<path d="M408.776 825L406.637 811" stroke="#425749" stroke-width="3" stroke-linecap="round"/>
<path d="M334.411 730.533L321.002 723.467" stroke="#425749" stroke-width="3" stroke-linecap="round"/>
<path d="M321.917 731.692L333.496 722.308" stroke="#425749" stroke-width="3" stroke-linecap="round"/>
<path d="M328.776 734L326.637 720" stroke="#425749" stroke-width="3" stroke-linecap="round"/>
<path d="M72.855 278.525L57.53 270.45" stroke="#425749" stroke-width="3" stroke-linecap="round"/>
<path d="M58.5757 279.849L71.8088 269.126" stroke="#425749" stroke-width="3" stroke-linecap="round"/>
<path d="M66.415 282.488L63.9701 266.488" stroke="#425749" stroke-width="3" stroke-linecap="round"/>
</svg>
